<svg xmlns="http://www.w3.org/2000/svg" xmlns:xlink="http://www.w3.org/1999/xlink" width="500" zoomAndPan="magnify" viewBox="0 0 375 374.999991" height="500" preserveAspectRatio="xMidYMid meet" version="1.0"><defs><g/><clipPath id="2bb96777bf"><path d="M 72.769531 76.261719 L 199.492188 76.261719 L 199.492188 185.160156 L 72.769531 185.160156 Z M 72.769531 76.261719 " clip-rule="nonzero"/></clipPath><clipPath id="9fbaf14667"><path d="M 199.492188 130.710938 L 167.8125 185.160156 L 104.449219 185.160156 L 72.769531 130.710938 L 104.449219 76.261719 L 167.8125 76.261719 L 199.492188 130.710938 " clip-rule="nonzero"/></clipPath><clipPath id="c529f6e32c"><path d="M 72.746094 76.261719 L 199.488281 76.261719 L 199.488281 185.011719 L 72.746094 185.011719 Z M 72.746094 76.261719 " clip-rule="nonzero"/></clipPath><clipPath id="12691d3828"><path d="M 199.488281 130.636719 L 167.800781 185.011719 L 104.429688 185.011719 L 72.746094 130.636719 L 104.429688 76.261719 L 167.800781 76.261719 L 199.488281 130.636719 " clip-rule="nonzero"/></clipPath><clipPath id="a4b524a6f1"><path d="M 72.769531 189.84375 L 199.492188 189.84375 L 199.492188 298.742188 L 72.769531 298.742188 Z M 72.769531 189.84375 " clip-rule="nonzero"/></clipPath><clipPath id="c4f7608bf0"><path d="M 199.492188 244.292969 L 167.8125 298.742188 L 104.449219 298.742188 L 72.769531 244.292969 L 104.449219 189.84375 L 167.8125 189.84375 L 199.492188 244.292969 " clip-rule="nonzero"/></clipPath><clipPath id="91690f2105"><path d="M 72.746094 189.84375 L 199.488281 189.84375 L 199.488281 298.59375 L 72.746094 298.59375 Z M 72.746094 189.84375 " clip-rule="nonzero"/></clipPath><clipPath id="3c71f98a4f"><path d="M 199.488281 244.21875 L 167.800781 298.59375 L 104.429688 298.59375 L 72.746094 244.21875 L 104.429688 189.84375 L 167.800781 189.84375 L 199.488281 244.21875 " clip-rule="nonzero"/></clipPath><clipPath id="800b959bd2"><path d="M 175.492188 135.390625 L 302.210938 135.390625 L 302.210938 244.292969 L 175.492188 244.292969 Z M 175.492188 135.390625 " clip-rule="nonzero"/></clipPath><clipPath id="6dc46f70c2"><path d="M 302.210938 189.84375 L 270.53125 244.292969 L 207.171875 244.292969 L 175.492188 189.84375 L 207.171875 135.390625 L 270.53125 135.390625 L 302.210938 189.84375 " clip-rule="nonzero"/></clipPath><clipPath id="673e7216d4"><path d="M 175.464844 135.390625 L 302.210938 135.390625 L 302.210938 244.140625 L 175.464844 244.140625 Z M 175.464844 135.390625 " clip-rule="nonzero"/></clipPath><clipPath id="c83d87d80d"><path d="M 302.210938 189.765625 L 270.523438 244.140625 L 207.152344 244.140625 L 175.464844 189.765625 L 207.152344 135.390625 L 270.523438 135.390625 L 302.210938 189.765625 " clip-rule="nonzero"/></clipPath></defs><rect x="-37.5" width="450" fill="#ffffff" y="-37.499999" height="449.999989" fill-opacity="1"/><rect x="-37.5" width="450" fill="#ffffff" y="-37.499999" height="449.999989" fill-opacity="1"/><g clip-path="url(#2bb96777bf)"><g clip-path="url(#9fbaf14667)"><path fill="#ffffff" d="M 199.492188 76.261719 L 199.492188 185.160156 L 72.769531 185.160156 L 72.769531 76.261719 Z M 199.492188 76.261719 " fill-opacity="1" fill-rule="nonzero"/></g></g><g clip-path="url(#c529f6e32c)"><g clip-path="url(#12691d3828)"><path stroke-linecap="butt" transform="matrix(0.000000000000000046, 0.749031, -0.750208, 0.000000000000000046, 199.488493, 76.260741)" fill="none" stroke-linejoin="miter" d="M 72.595064 0.000282255 L 145.188822 42.238568 L 145.188822 126.709932 L 72.595064 168.943011 L 0.00130483 126.709932 L 0.00130483 42.238568 L 72.595064 0.000282255 " stroke="#000000" stroke-width="8" stroke-opacity="1" stroke-miterlimit="4"/></g></g><g fill="#000000" fill-opacity="1"><g transform="translate(111.482466, 153.052545)"><g><path d="M 37.5 -23.640625 C 40.144531 -22.898438 42.226562 -21.5625 43.75 -19.625 C 45.269531 -17.695312 46.03125 -15.257812 46.03125 -12.3125 C 46.03125 -8.351562 44.539062 -5.3125 41.5625 -3.1875 C 38.59375 -1.0625 34.265625 0 28.578125 0 L 6.84375 0 L 6.84375 -45.578125 L 27.28125 -45.578125 C 32.488281 -45.578125 36.515625 -44.535156 39.359375 -42.453125 C 42.203125 -40.367188 43.625 -37.484375 43.625 -33.796875 C 43.625 -31.398438 43.066406 -29.332031 41.953125 -27.59375 C 40.847656 -25.863281 39.363281 -24.546875 37.5 -23.640625 Z M 13.34375 -40.296875 L 13.34375 -25.71875 L 26.6875 -25.71875 C 30.03125 -25.71875 32.601562 -26.332031 34.40625 -27.5625 C 36.207031 -28.800781 37.109375 -30.617188 37.109375 -33.015625 C 37.109375 -35.398438 36.207031 -37.207031 34.40625 -38.4375 C 32.601562 -39.675781 30.03125 -40.296875 26.6875 -40.296875 Z M 28.328125 -5.28125 C 32.015625 -5.28125 34.789062 -5.882812 36.65625 -7.09375 C 38.519531 -8.3125 39.453125 -10.222656 39.453125 -12.828125 C 39.453125 -17.898438 35.742188 -20.4375 28.328125 -20.4375 L 13.34375 -20.4375 L 13.34375 -5.28125 Z M 28.328125 -5.28125 "/></g></g></g><g clip-path="url(#a4b524a6f1)"><g clip-path="url(#c4f7608bf0)"><path fill="#ffffff" d="M 199.492188 189.84375 L 199.492188 298.742188 L 72.769531 298.742188 L 72.769531 189.84375 Z M 199.492188 189.84375 " fill-opacity="1" fill-rule="nonzero"/></g></g><g clip-path="url(#91690f2105)"><g clip-path="url(#3c71f98a4f)"><path stroke-linecap="butt" transform="matrix(0.000000000000000046, 0.749031, -0.750208, 0.000000000000000046, 199.488493, 189.841891)" fill="none" stroke-linejoin="miter" d="M 72.596241 0.000282255 L 145.19 42.238568 L 145.19 126.709932 L 72.596241 168.943011 L 0.00248223 126.709932 L 0.00248223 42.238568 L 72.596241 0.000282255 " stroke="#000000" stroke-width="8" stroke-opacity="1" stroke-miterlimit="4"/></g></g><g clip-path="url(#800b959bd2)"><g clip-path="url(#6dc46f70c2)"><path fill="#2f4c3e" d="M 302.210938 135.390625 L 302.210938 244.292969 L 175.492188 244.292969 L 175.492188 135.390625 Z M 302.210938 135.390625 " fill-opacity="1" fill-rule="nonzero"/></g></g><g clip-path="url(#673e7216d4)"><g clip-path="url(#c83d87d80d)"><path stroke-linecap="butt" transform="matrix(0.000000000000000046, 0.749031, -0.750208, 0.000000000000000046, 302.209847, 135.391222)" fill="none" stroke-linejoin="miter" d="M 72.592961 -0.00145352 L 145.18672 42.236832 L 145.18672 126.708196 L 72.592961 168.946482 L -0.000797442 126.708196 L -0.000797442 42.236832 L 72.592961 -0.00145352 " stroke="#2f4c3e" stroke-width="8" stroke-opacity="1" stroke-miterlimit="4"/></g></g><g fill="#000000" fill-opacity="1"><g transform="translate(105.045724, 266.633701)"><g><path d="M 49.09375 0 L 49.03125 -33.203125 L 32.5625 -5.53125 L 29.5625 -5.53125 L 13.09375 -33.015625 L 13.09375 0 L 6.84375 0 L 6.84375 -45.578125 L 12.171875 -45.578125 L 31.1875 -13.546875 L 49.9375 -45.578125 L 55.28125 -45.578125 L 55.34375 0 Z M 49.09375 0 "/></g></g></g></svg>