<svg xmlns="http://www.w3.org/2000/svg" xmlns:xlink="http://www.w3.org/1999/xlink" width="500" zoomAndPan="magnify" viewBox="0 0 375 374.999991" height="500" preserveAspectRatio="xMidYMid meet" version="1.0"><defs><g/><clipPath id="918ea8fc51"><path d="M 45.480469 71.164062 L 319 71.164062 L 319 344.84375 L 45.480469 344.84375 Z M 45.480469 71.164062 " clip-rule="nonzero"/></clipPath><clipPath id="a37a0ef7a0"><path d="M 182.15625 344.515625 C 145.664062 344.515625 111.304688 330.3125 85.519531 304.472656 C 59.683594 278.691406 45.480469 244.332031 45.480469 207.839844 C 45.480469 171.347656 59.683594 136.988281 85.519531 111.203125 C 111.304688 85.367188 145.664062 71.164062 182.15625 71.164062 C 218.648438 71.164062 253.007812 85.367188 278.789062 111.203125 C 304.628906 137.042969 318.832031 171.347656 318.832031 207.839844 C 318.832031 244.332031 304.628906 278.691406 278.789062 304.472656 C 253.007812 330.3125 218.648438 344.515625 182.15625 344.515625 M 182.15625 79.355469 C 147.851562 79.355469 115.566406 92.742188 91.3125 116.996094 C 67.058594 141.25 53.675781 173.535156 53.675781 207.839844 C 53.675781 242.144531 67.058594 274.429688 91.3125 298.683594 C 115.566406 322.9375 147.851562 336.320312 182.15625 336.320312 C 216.460938 336.320312 248.746094 322.9375 273 298.683594 C 297.253906 274.429688 310.636719 242.144531 310.636719 207.839844 C 310.636719 173.535156 297.253906 141.25 273 116.996094 C 248.746094 92.742188 216.460938 79.355469 182.15625 79.355469 " clip-rule="nonzero"/></clipPath><clipPath id="a04ff4a87b"><path d="M 136.589844 119.453125 L 192.839844 119.453125 L 192.839844 168.203125 L 136.589844 168.203125 Z M 136.589844 119.453125 " clip-rule="nonzero"/></clipPath><clipPath id="17590b9004"><path d="M 192.839844 143.828125 L 178.777344 168.203125 L 150.652344 168.203125 L 136.589844 143.828125 L 150.652344 119.453125 L 178.777344 119.453125 L 192.839844 143.828125 " clip-rule="nonzero"/></clipPath><clipPath id="31abd42ece"><path d="M 136.589844 170.035156 L 192.839844 170.035156 L 192.839844 218.78125 L 136.589844 218.78125 Z M 136.589844 170.035156 " clip-rule="nonzero"/></clipPath><clipPath id="81651ce4aa"><path d="M 192.839844 194.40625 L 178.777344 218.78125 L 150.652344 218.78125 L 136.589844 194.40625 L 150.652344 170.035156 L 178.777344 170.035156 L 192.839844 194.40625 " clip-rule="nonzero"/></clipPath><clipPath id="b50529b808"><path d="M 182.152344 145.785156 L 238.582031 145.785156 L 238.582031 194.28125 L 182.152344 194.28125 Z M 182.152344 145.785156 " clip-rule="nonzero"/></clipPath><clipPath id="a497c85bbc"><path d="M 238.582031 170.03125 L 224.476562 194.28125 L 196.257812 194.28125 L 182.152344 170.03125 L 196.257812 145.785156 L 224.476562 145.785156 L 238.582031 170.03125 " clip-rule="nonzero"/></clipPath><clipPath id="9a5a9c696a"><path d="M 182.332031 145.785156 L 238.582031 145.785156 L 238.582031 194.535156 L 182.332031 194.535156 Z M 182.332031 145.785156 " clip-rule="nonzero"/></clipPath><clipPath id="cbfeb65448"><path d="M 238.582031 170.160156 L 224.519531 194.535156 L 196.394531 194.535156 L 182.332031 170.160156 L 196.394531 145.785156 L 224.519531 145.785156 L 238.582031 170.160156 " clip-rule="nonzero"/></clipPath></defs><g clip-path="url(#918ea8fc51)"><g clip-path="url(#a37a0ef7a0)"><path fill="#000000" d="M 45.480469 71.164062 L 318.613281 71.164062 L 318.613281 344.296875 L 45.480469 344.296875 Z M 45.480469 71.164062 " fill-opacity="1" fill-rule="nonzero"/></g></g><g fill="#000000" fill-opacity="1"><g transform="translate(99.781163, 269.041653)"><g><path d="M 16.703125 -10.53125 C 17.878906 -10.195312 18.804688 -9.597656 19.484375 -8.734375 C 20.160156 -7.878906 20.5 -6.796875 20.5 -5.484375 C 20.5 -3.722656 19.835938 -2.367188 18.515625 -1.421875 C 17.191406 -0.472656 15.265625 0 12.734375 0 L 3.046875 0 L 3.046875 -20.296875 L 12.15625 -20.296875 C 14.46875 -20.296875 16.257812 -19.832031 17.53125 -18.90625 C 18.800781 -17.976562 19.4375 -16.691406 19.4375 -15.046875 C 19.4375 -13.984375 19.1875 -13.066406 18.6875 -12.296875 C 18.195312 -11.523438 17.535156 -10.9375 16.703125 -10.53125 Z M 5.9375 -17.953125 L 5.9375 -11.453125 L 11.890625 -11.453125 C 13.378906 -11.453125 14.523438 -11.726562 15.328125 -12.28125 C 16.128906 -12.832031 16.53125 -13.640625 16.53125 -14.703125 C 16.53125 -15.765625 16.128906 -16.570312 15.328125 -17.125 C 14.523438 -17.675781 13.378906 -17.953125 11.890625 -17.953125 Z M 12.609375 -2.34375 C 14.253906 -2.34375 15.492188 -2.613281 16.328125 -3.15625 C 17.160156 -3.695312 17.578125 -4.550781 17.578125 -5.71875 C 17.578125 -7.976562 15.921875 -9.109375 12.609375 -9.109375 L 5.9375 -9.109375 L 5.9375 -2.34375 Z M 12.609375 -2.34375 "/></g></g></g><g fill="#000000" fill-opacity="1"><g transform="translate(123.758241, 269.041653)"><g><path d="M 21.859375 0 L 21.84375 -14.796875 L 14.5 -2.46875 L 13.171875 -2.46875 L 5.828125 -14.703125 L 5.828125 0 L 3.046875 0 L 3.046875 -20.296875 L 5.421875 -20.296875 L 13.890625 -6.03125 L 22.25 -20.296875 L 24.625 -20.296875 L 24.65625 0 Z M 21.859375 0 "/></g></g></g><g fill="#000000" fill-opacity="1"><g transform="translate(153.475764, 269.041653)"><g><path d="M 15.984375 -5.078125 L 5.1875 -5.078125 L 2.953125 0 L -0.03125 0 L 9.15625 -20.296875 L 12.03125 -20.296875 L 21.25 0 L 18.21875 0 Z M 14.96875 -7.390625 L 10.578125 -17.34375 L 6.203125 -7.390625 Z M 14.96875 -7.390625 "/></g></g></g><g fill="#000000" fill-opacity="1"><g transform="translate(176.72804, 269.041653)"><g><path d="M 18.21875 -2.515625 L 18.21875 0 L 1.25 0 L 1.25 -1.96875 L 14 -17.78125 L 1.453125 -17.78125 L 1.453125 -20.296875 L 17.828125 -20.296875 L 17.828125 -18.328125 L 5.140625 -2.515625 Z M 18.21875 -2.515625 "/></g></g></g><g fill="#000000" fill-opacity="1"><g transform="translate(197.805893, 269.041653)"><g><path d="M 18.21875 -2.515625 L 18.21875 0 L 1.25 0 L 1.25 -1.96875 L 14 -17.78125 L 1.453125 -17.78125 L 1.453125 -20.296875 L 17.828125 -20.296875 L 17.828125 -18.328125 L 5.140625 -2.515625 Z M 18.21875 -2.515625 "/></g></g></g><g fill="#000000" fill-opacity="1"><g transform="translate(218.883746, 269.041653)"><g><path d="M 15.984375 -5.078125 L 5.1875 -5.078125 L 2.953125 0 L -0.03125 0 L 9.15625 -20.296875 L 12.03125 -20.296875 L 21.25 0 L 18.21875 0 Z M 14.96875 -7.390625 L 10.578125 -17.34375 L 6.203125 -7.390625 Z M 14.96875 -7.390625 "/></g></g></g><g fill="#000000" fill-opacity="1"><g transform="translate(242.136021, 269.041653)"><g><path d="M 17.109375 -10.265625 L 19.890625 -10.265625 L 19.890625 -2.34375 C 18.890625 -1.519531 17.722656 -0.882812 16.390625 -0.4375 C 15.054688 0.0078125 13.660156 0.234375 12.203125 0.234375 C 10.160156 0.234375 8.316406 -0.210938 6.671875 -1.109375 C 5.023438 -2.015625 3.734375 -3.253906 2.796875 -4.828125 C 1.859375 -6.398438 1.390625 -8.175781 1.390625 -10.15625 C 1.390625 -12.125 1.859375 -13.898438 2.796875 -15.484375 C 3.734375 -17.066406 5.023438 -18.300781 6.671875 -19.1875 C 8.328125 -20.082031 10.191406 -20.53125 12.265625 -20.53125 C 13.890625 -20.53125 15.363281 -20.265625 16.6875 -19.734375 C 18.007812 -19.203125 19.132812 -18.425781 20.0625 -17.40625 L 18.265625 -15.609375 C 16.640625 -17.171875 14.679688 -17.953125 12.390625 -17.953125 C 10.835938 -17.953125 9.445312 -17.617188 8.21875 -16.953125 C 6.988281 -16.285156 6.023438 -15.359375 5.328125 -14.171875 C 4.640625 -12.984375 4.296875 -11.644531 4.296875 -10.15625 C 4.296875 -8.6875 4.640625 -7.351562 5.328125 -6.15625 C 6.023438 -4.96875 6.988281 -4.035156 8.21875 -3.359375 C 9.445312 -2.679688 10.828125 -2.34375 12.359375 -2.34375 C 14.171875 -2.34375 15.753906 -2.78125 17.109375 -3.65625 Z M 17.109375 -10.265625 "/></g></g></g><g clip-path="url(#a04ff4a87b)"><g clip-path="url(#17590b9004)"><path stroke-linecap="butt" transform="matrix(0.000000000000000046, 0.753987, -0.747664, 0.000000000000000046, 192.838528, 119.452852)" fill="none" stroke-linejoin="miter" d="M 32.328485 -0.00176003 L 64.656608 18.806834 L 64.656608 56.424023 L 32.328485 75.232617 L 0.000361868 56.424023 L 0.000361868 18.806834 L 32.328485 -0.00176003 " stroke="#000000" stroke-width="8" stroke-opacity="1" stroke-miterlimit="4"/></g></g><g clip-path="url(#31abd42ece)"><g clip-path="url(#81651ce4aa)"><path stroke-linecap="butt" transform="matrix(0.000000000000000046, 0.753987, -0.747664, 0.000000000000000046, 192.838528, 170.033396)" fill="none" stroke-linejoin="miter" d="M 32.325277 -0.00176003 L 64.6534 18.806834 L 64.6534 56.424023 L 32.325277 75.232617 L 0.00233454 56.424023 L 0.00233454 18.806834 L 32.325277 -0.00176003 " stroke="#000000" stroke-width="8" stroke-opacity="1" stroke-miterlimit="4"/></g></g><g clip-path="url(#b50529b808)"><g clip-path="url(#a497c85bbc)"><path fill="#2f4c3e" d="M 238.582031 145.785156 L 238.582031 194.28125 L 182.152344 194.28125 L 182.152344 145.785156 Z M 238.582031 145.785156 " fill-opacity="1" fill-rule="nonzero"/></g></g><g clip-path="url(#9a5a9c696a)"><g clip-path="url(#cbfeb65448)"><path stroke-linecap="butt" transform="matrix(0.000000000000000046, 0.753987, -0.747664, 0.000000000000000046, 238.582928, 145.785151)" fill="none" stroke-linejoin="miter" d="M 32.32813 0.00119945 L 64.656253 18.809794 L 64.656253 56.426983 L 32.32813 75.235577 L 0.00000666221 56.426983 L 0.00000666221 18.809794 L 32.32813 0.00119945 " stroke="#2f4c3e" stroke-width="8" stroke-opacity="1" stroke-miterlimit="4"/></g></g></svg>